

<?xml version="1.0" encoding="utf-8"?>
<!-- Generator: Adobe Illustrator 22.1.0, SVG Export Plug-In . SVG Version: 6.00 Build 0)  -->
<svg height="100vh" width="100vw">
<style type="text/css">
	.st0{fill:#231F20;}
	.st1{fill:none;stroke:#231F20;stroke-linecap:round;stroke-miterlimit:10;}
</style>
<g>
	<g>
		<path class="st0" d="M540,329.2c-0.3,74.5-47.8,143-118.1,168.3c-70.4,25.3-150.8,3.2-198.6-54.4c-47.9-57.7-54-141.9-15.4-206
			c38.7-64.3,115.8-98.2,189.5-83c72,14.9,128.8,74.4,140.5,147C539.3,310.4,539.9,319.8,540,329.2c0,3.9,6,3.9,6,0
			c-0.3-76.9-49-147-121.3-173.6c-72.9-26.8-157.3-3.6-206.5,56.4c-49,59.9-55.4,146.6-15.2,212.9c40.1,66,118.9,100.5,194.6,85.5
			c74.9-14.9,134.7-77.3,146.2-152.8c1.4-9.4,2.2-18.9,2.2-28.4C546,325.3,540,325.3,540,329.2z"/>
	</g>
</g>
<circle class="st1" cx="339" cy="150" r="7.5"/>
<circle class="st1" cx="359" cy="512" r="8.5"/>
</svg>
